# xmcd
# 
# Track frame offsets:
#     150
#     2405
#     14790
#     44305
#     57697
#     79232
#     94847
#     109660
#     127310
#     142682
#     154720
# 
# Disc length: 2437
# 
# Revision: 3
# Processed by: cddbd v1.5.2PL0 Copyright (c) Steve Scherf et al.
# Submitted via: fre:ac v1.0.31
# 
DISCID=8f09830b
DTITLE=Dan Fogelberg - High Country Snows
DYEAR=1985
DGENRE=Country
TTITLE0=Down The Road
TTITLE1=Mountain Pass
TTITLE2=Sutter's Mill
TTITLE3=Wolf Creek
TTITLE4=High Country Snows
TTITLE5=The Outlaw
TTITLE6=Shallow Rivers
TTITLE7=Go Down Easy
TTITLE8=Wandering Shepherd
TTITLE9=Think Of What You've Done
TTITLE10=The Higher You Climb
EXTD=
EXTT0=
EXTT1=
EXTT2=
EXTT3=
EXTT4=
EXTT5=
EXTT6=
EXTT7=
EXTT8=
EXTT9=
EXTT10=
PLAYORDER=
